<mxfile host="app.diagrams.net" modified="2024-03-12T03:03:51.021Z" agent="Mozilla/5.0 (Windows NT 10.0; Win64; x64) AppleWebKit/537.36 (KHTML, like Gecko) Chrome/122.0.0.0 Safari/537.36" etag="Gj6dDztxcZKTDHTmGWkF" version="24.0.4" type="github">
  <diagram name="检测爬虫" id="LipVCm2toAS0H1Gw0r4G">
    <mxGraphModel dx="1434" dy="746" grid="1" gridSize="10" guides="1" tooltips="1" connect="1" arrows="1" fold="1" page="1" pageScale="1" pageWidth="827" pageHeight="1169" math="0" shadow="0">
      <root>
        <mxCell id="0" />
        <mxCell id="1" parent="0" />
        <mxCell id="xS1ujYXRcIZ9bkwbVfqU-4" style="rounded=0;orthogonalLoop=1;jettySize=auto;html=1;entryX=0.5;entryY=0;entryDx=0;entryDy=0;fontFamily=Lucida Console;fontSize=18;labelPosition=right;verticalLabelPosition=middle;align=left;verticalAlign=middle;" edge="1" parent="1" source="xS1ujYXRcIZ9bkwbVfqU-1" target="xS1ujYXRcIZ9bkwbVfqU-3">
          <mxGeometry relative="1" as="geometry" />
        </mxCell>
        <mxCell id="xS1ujYXRcIZ9bkwbVfqU-6" style="rounded=0;orthogonalLoop=1;jettySize=auto;html=1;entryX=0.5;entryY=0;entryDx=0;entryDy=0;fontFamily=Lucida Console;fontSize=18;labelPosition=right;verticalLabelPosition=middle;align=left;verticalAlign=middle;" edge="1" parent="1" source="xS1ujYXRcIZ9bkwbVfqU-1" target="xS1ujYXRcIZ9bkwbVfqU-5">
          <mxGeometry relative="1" as="geometry" />
        </mxCell>
        <mxCell id="xS1ujYXRcIZ9bkwbVfqU-8" style="rounded=0;orthogonalLoop=1;jettySize=auto;html=1;entryX=0.5;entryY=0;entryDx=0;entryDy=0;fontFamily=Lucida Console;fontSize=18;labelPosition=right;verticalLabelPosition=middle;align=left;verticalAlign=middle;" edge="1" parent="1" source="xS1ujYXRcIZ9bkwbVfqU-1" target="xS1ujYXRcIZ9bkwbVfqU-7">
          <mxGeometry relative="1" as="geometry" />
        </mxCell>
        <mxCell id="xS1ujYXRcIZ9bkwbVfqU-1" value="/" style="ellipse;whiteSpace=wrap;html=1;aspect=fixed;verticalAlign=middle;labelPosition=right;verticalLabelPosition=middle;align=left;fontFamily=Lucida Console;fontSize=18;" vertex="1" parent="1">
          <mxGeometry x="260" y="110" width="15" height="15" as="geometry" />
        </mxCell>
        <mxCell id="xS1ujYXRcIZ9bkwbVfqU-2" value="" style="sketch=0;pointerEvents=1;shadow=0;dashed=0;html=1;strokeColor=none;fillColor=#505050;labelPosition=center;verticalLabelPosition=bottom;verticalAlign=top;outlineConnect=0;align=center;shape=mxgraph.office.concepts.home_page;fontFamily=Lucida Console;fontSize=18;" vertex="1" parent="1">
          <mxGeometry x="241" y="40" width="53" height="43" as="geometry" />
        </mxCell>
        <mxCell id="xS1ujYXRcIZ9bkwbVfqU-22" style="rounded=0;orthogonalLoop=1;jettySize=auto;html=1;" edge="1" parent="1" source="xS1ujYXRcIZ9bkwbVfqU-3" target="xS1ujYXRcIZ9bkwbVfqU-21">
          <mxGeometry relative="1" as="geometry" />
        </mxCell>
        <mxCell id="xS1ujYXRcIZ9bkwbVfqU-3" value="/a" style="ellipse;whiteSpace=wrap;html=1;aspect=fixed;verticalAlign=middle;labelPosition=right;verticalLabelPosition=middle;align=left;fontFamily=Lucida Console;fontSize=16;" vertex="1" parent="1">
          <mxGeometry x="100" y="220" width="15" height="15" as="geometry" />
        </mxCell>
        <mxCell id="xS1ujYXRcIZ9bkwbVfqU-29" value="" style="edgeStyle=none;rounded=0;orthogonalLoop=1;jettySize=auto;html=1;" edge="1" parent="1" source="xS1ujYXRcIZ9bkwbVfqU-5" target="xS1ujYXRcIZ9bkwbVfqU-28">
          <mxGeometry relative="1" as="geometry" />
        </mxCell>
        <mxCell id="xS1ujYXRcIZ9bkwbVfqU-5" value="/b" style="ellipse;whiteSpace=wrap;html=1;aspect=fixed;verticalAlign=middle;labelPosition=right;verticalLabelPosition=middle;align=left;fontFamily=Lucida Console;fontSize=16;" vertex="1" parent="1">
          <mxGeometry x="260" y="220" width="15" height="15" as="geometry" />
        </mxCell>
        <mxCell id="xS1ujYXRcIZ9bkwbVfqU-9" style="rounded=0;orthogonalLoop=1;jettySize=auto;html=1;fontSize=16;" edge="1" parent="1" source="xS1ujYXRcIZ9bkwbVfqU-7" target="xS1ujYXRcIZ9bkwbVfqU-10">
          <mxGeometry relative="1" as="geometry">
            <mxPoint x="447.5" y="330" as="targetPoint" />
          </mxGeometry>
        </mxCell>
        <mxCell id="xS1ujYXRcIZ9bkwbVfqU-12" style="rounded=0;orthogonalLoop=1;jettySize=auto;html=1;entryX=0.5;entryY=0;entryDx=0;entryDy=0;" edge="1" parent="1" source="xS1ujYXRcIZ9bkwbVfqU-7" target="xS1ujYXRcIZ9bkwbVfqU-11">
          <mxGeometry relative="1" as="geometry" />
        </mxCell>
        <mxCell id="xS1ujYXRcIZ9bkwbVfqU-14" style="rounded=0;orthogonalLoop=1;jettySize=auto;html=1;entryX=0.5;entryY=0;entryDx=0;entryDy=0;" edge="1" parent="1" source="xS1ujYXRcIZ9bkwbVfqU-7" target="xS1ujYXRcIZ9bkwbVfqU-13">
          <mxGeometry relative="1" as="geometry" />
        </mxCell>
        <mxCell id="xS1ujYXRcIZ9bkwbVfqU-7" value="/c" style="ellipse;whiteSpace=wrap;html=1;aspect=fixed;verticalAlign=middle;labelPosition=right;verticalLabelPosition=middle;align=left;fontFamily=Lucida Console;fontSize=16;" vertex="1" parent="1">
          <mxGeometry x="440" y="220" width="15" height="15" as="geometry" />
        </mxCell>
        <mxCell id="xS1ujYXRcIZ9bkwbVfqU-18" value="" style="rounded=0;orthogonalLoop=1;jettySize=auto;html=1;" edge="1" parent="1" source="xS1ujYXRcIZ9bkwbVfqU-10" target="xS1ujYXRcIZ9bkwbVfqU-17">
          <mxGeometry relative="1" as="geometry" />
        </mxCell>
        <mxCell id="xS1ujYXRcIZ9bkwbVfqU-10" value="/c1" style="ellipse;whiteSpace=wrap;html=1;aspect=fixed;verticalAlign=middle;labelPosition=right;verticalLabelPosition=middle;align=left;fontSize=16;" vertex="1" parent="1">
          <mxGeometry x="385" y="312" width="15" height="15" as="geometry" />
        </mxCell>
        <mxCell id="xS1ujYXRcIZ9bkwbVfqU-16" style="rounded=0;orthogonalLoop=1;jettySize=auto;html=1;" edge="1" parent="1" source="xS1ujYXRcIZ9bkwbVfqU-11" target="xS1ujYXRcIZ9bkwbVfqU-15">
          <mxGeometry relative="1" as="geometry" />
        </mxCell>
        <mxCell id="xS1ujYXRcIZ9bkwbVfqU-11" value="drawer" style="ellipse;whiteSpace=wrap;html=1;aspect=fixed;verticalAlign=middle;labelPosition=right;verticalLabelPosition=middle;align=left;fillColor=#A9C4EB;" vertex="1" parent="1">
          <mxGeometry x="455" y="312" width="15" height="15" as="geometry" />
        </mxCell>
        <mxCell id="xS1ujYXRcIZ9bkwbVfqU-27" value="" style="edgeStyle=none;rounded=0;orthogonalLoop=1;jettySize=auto;html=1;" edge="1" parent="1" source="xS1ujYXRcIZ9bkwbVfqU-13" target="xS1ujYXRcIZ9bkwbVfqU-26">
          <mxGeometry relative="1" as="geometry" />
        </mxCell>
        <mxCell id="xS1ujYXRcIZ9bkwbVfqU-13" value="modal" style="ellipse;whiteSpace=wrap;html=1;aspect=fixed;verticalAlign=middle;labelPosition=right;verticalLabelPosition=middle;align=left;fillColor=#A9C4EB;" vertex="1" parent="1">
          <mxGeometry x="524" y="312" width="15" height="15" as="geometry" />
        </mxCell>
        <mxCell id="xS1ujYXRcIZ9bkwbVfqU-15" value="" style="shape=image;html=1;verticalAlign=top;verticalLabelPosition=bottom;labelBackgroundColor=#ffffff;imageAspect=0;aspect=fixed;image=https://cdn1.iconfinder.com/data/icons/ios-11-glyphs/30/screenshot-128.png" vertex="1" parent="1">
          <mxGeometry x="442.5" y="389.5" width="40" height="40" as="geometry" />
        </mxCell>
        <mxCell id="xS1ujYXRcIZ9bkwbVfqU-20" style="rounded=0;orthogonalLoop=1;jettySize=auto;html=1;" edge="1" parent="1" source="xS1ujYXRcIZ9bkwbVfqU-19">
          <mxGeometry relative="1" as="geometry">
            <mxPoint x="380" y="479.5" as="targetPoint" />
          </mxGeometry>
        </mxCell>
        <mxCell id="xS1ujYXRcIZ9bkwbVfqU-17" value="drawer" style="ellipse;whiteSpace=wrap;html=1;aspect=fixed;verticalAlign=middle;labelPosition=right;verticalLabelPosition=middle;align=left;fontSize=16;fillColor=#A9C4EB;" vertex="1" parent="1">
          <mxGeometry x="372.5" y="402" width="15" height="15" as="geometry" />
        </mxCell>
        <mxCell id="xS1ujYXRcIZ9bkwbVfqU-21" value="" style="shape=image;html=1;verticalAlign=top;verticalLabelPosition=bottom;labelBackgroundColor=#ffffff;imageAspect=0;aspect=fixed;image=https://cdn1.iconfinder.com/data/icons/ios-11-glyphs/30/screenshot-128.png" vertex="1" parent="1">
          <mxGeometry x="87.5" y="299.5" width="40" height="40" as="geometry" />
        </mxCell>
        <mxCell id="xS1ujYXRcIZ9bkwbVfqU-23" value="" style="rounded=0;orthogonalLoop=1;jettySize=auto;html=1;" edge="1" parent="1" source="xS1ujYXRcIZ9bkwbVfqU-17" target="xS1ujYXRcIZ9bkwbVfqU-19">
          <mxGeometry relative="1" as="geometry">
            <mxPoint x="380.5" y="417.5" as="sourcePoint" />
            <mxPoint x="380" y="479.5" as="targetPoint" />
          </mxGeometry>
        </mxCell>
        <mxCell id="xS1ujYXRcIZ9bkwbVfqU-19" value="" style="shape=image;html=1;verticalAlign=top;verticalLabelPosition=bottom;labelBackgroundColor=#ffffff;imageAspect=0;aspect=fixed;image=https://cdn1.iconfinder.com/data/icons/ios-11-glyphs/30/screenshot-128.png" vertex="1" parent="1">
          <mxGeometry x="360" y="469.5" width="40" height="40" as="geometry" />
        </mxCell>
        <mxCell id="xS1ujYXRcIZ9bkwbVfqU-26" value="toast" style="ellipse;whiteSpace=wrap;html=1;aspect=fixed;verticalAlign=middle;labelPosition=right;verticalLabelPosition=middle;align=left;fillColor=#A9C4EB;" vertex="1" parent="1">
          <mxGeometry x="524" y="402" width="15" height="15" as="geometry" />
        </mxCell>
        <mxCell id="xS1ujYXRcIZ9bkwbVfqU-28" value="tooltip" style="ellipse;whiteSpace=wrap;html=1;aspect=fixed;verticalAlign=middle;labelPosition=right;verticalLabelPosition=middle;align=left;fontFamily=Lucida Console;fontSize=16;fillColor=#A9C4EB;" vertex="1" parent="1">
          <mxGeometry x="260" y="312" width="15" height="15" as="geometry" />
        </mxCell>
        <mxCell id="xS1ujYXRcIZ9bkwbVfqU-30" value="监听 history 变化" style="text;html=1;align=center;verticalAlign=middle;resizable=0;points=[];autosize=1;strokeColor=none;fillColor=none;" vertex="1" parent="1">
          <mxGeometry x="620" y="212.5" width="110" height="30" as="geometry" />
        </mxCell>
        <mxCell id="xS1ujYXRcIZ9bkwbVfqU-31" value="监听 DOM 变化" style="text;html=1;align=center;verticalAlign=middle;resizable=0;points=[];autosize=1;strokeColor=none;fillColor=none;" vertex="1" parent="1">
          <mxGeometry x="620" y="304.5" width="110" height="30" as="geometry" />
        </mxCell>
      </root>
    </mxGraphModel>
  </diagram>
</mxfile>
